<?xml version="1.0" encoding="utf-8"?>
<!-- Generator: Adobe Illustrator 16.0.0, SVG Export Plug-In . SVG Version: 6.00 Build 0)  -->
<!DOCTYPE svg PUBLIC "-//W3C//DTD SVG 1.1//EN" "http://www.w3.org/Graphics/SVG/1.1/DTD/svg11.dtd">
<svg version="1.1" id="Layer_1" xmlns="http://www.w3.org/2000/svg" xmlns:xlink="http://www.w3.org/1999/xlink" x="0px" y="0px"
	 width="205.152px" height="186.839px" viewBox="0 0 205.152 186.839" enable-background="new 0 0 205.152 186.839"
	 xml:space="preserve">
<g id="Comments_-_Orange_1_">
	<g>
		<path fill="#F0E3C0" d="M76.778,113.209c23.311,0,42.212,15.247,42.212,34.059c0,18.447-15.729,33.941-38.333,33.94
			c-0.432,0-0.877-0.005-1.318-0.018c-3.895-0.103-7.784-0.942-11.26-1.038l-33.24,6.687l7.843-19.504
			c-5.099-5.624-8.114-12.56-8.114-20.067C34.568,128.455,53.462,113.209,76.778,113.209 M76.778,120.663
			c-19.432,0-35.237,11.901-35.237,26.526c0,6.664,3.329,11.744,6.116,14.821l4.145,4.573l-2.306,5.732l-1.557,3.881l17.6-3.538
			l1.099-0.224l1.119,0.036c2.27,0.058,4.467,0.326,6.597,0.592c1.932,0.243,3.756,0.471,5.423,0.512
			c0.386,0.012,0.767,0.018,1.146,0.018c17.724,0,31.095-11.354,31.095-26.403C112.017,132.564,96.211,120.663,76.778,120.663
			L76.778,120.663z"/>
	</g>
</g>
<g>
	<path fill="#F0E3C0" d="M205.395,90.558c0-45.768-45.971-82.864-102.698-82.864C45.979,7.694-0.001,44.791,0,90.559
		c0,25.633,12.496,48.908,33.446,64.171c-0.658-2.45-1.012-4.991-1.012-7.601c0-4.791,1.175-9.358,3.292-13.535
		c-11.775-11.249-18.763-26.271-18.763-43.228c0-35.581,38.454-64.54,85.734-64.54c47.278,0,85.729,28.959,85.729,64.54
		c0,16.213-8.095,28.571-14.877,36.061l-10.084,11.128l9.394,23.386l-42.817-8.607l-2.673-0.543l-2.724,0.088
		c-1.308,0.032-2.604,0.099-3.893,0.183c-1.124,7.584-4.821,14.472-10.478,19.796c4.702-0.581,9.277-1.169,13.589-1.288
		l80.87,16.269l-19.081-47.455C198.055,125.699,205.395,108.824,205.395,90.558z"/>
</g>
<g id="To_Do_-_Orange">
</g>
<g id="User_-_Orange">
</g>
<g id="Tools_-_Grey">
</g>
</svg>
