<?xml version="1.0" encoding="utf-8"?>
<!-- Generator: Adobe Illustrator 16.0.0, SVG Export Plug-In . SVG Version: 6.00 Build 0)  -->
<!DOCTYPE svg PUBLIC "-//W3C//DTD SVG 1.1//EN" "http://www.w3.org/Graphics/SVG/1.1/DTD/svg11.dtd">
<svg version="1.1" id="Layer_1" xmlns="http://www.w3.org/2000/svg" xmlns:xlink="http://www.w3.org/1999/xlink" x="0px" y="0px"
	 width="203.116px" height="188.164px" viewBox="0 0 203.116 188.164" enable-background="new 0 0 203.116 188.164"
	 xml:space="preserve">
<g id="Comments_-_Orange">
</g>
<g id="To_Do_-_Orange">
	<g>
		<polygon fill="#F0E3C0" points="111.759,89.009 89.314,111.469 89.302,111.461 131.613,153.781 203.115,82.292 186.779,65.669 
			132.076,111.089 		"/>
		<path fill="#F0E3C0" d="M163.485,172.053H32.347V23.887h15.58v5.907c0,3.135,2.567,5.703,5.7,5.703h1.428
			c3.134,0,5.7-2.567,5.7-5.703v-5.907h16.666v5.907c0,3.135,2.565,5.703,5.698,5.703h1.428c3.139,0,5.7-2.567,5.7-5.703v-5.907
			h16.658v5.907c0,3.135,2.575,5.703,5.703,5.703h1.428c3.138,0,5.7-2.567,5.7-5.703v-5.907h16.664v5.907
			c0,3.135,2.565,5.703,5.703,5.703h1.423c3.138,0,5.703-2.567,5.703-5.703v-5.907h3.402l10.852,10.656v31.939l11.405-9.466V29.755
			l-17.597-17.271h-8.063v-5.78c0-3.133-2.563-5.703-5.703-5.703h-1.423c-3.136,0-5.703,2.57-5.703,5.703v5.78h-16.663v-5.78
			c0-3.133-2.563-5.703-5.7-5.703h-1.428c-3.128,0-5.703,2.57-5.703,5.703v5.78H90.249v-5.78c0-3.133-2.562-5.703-5.7-5.703h-1.428
			c-3.133,0-5.698,2.57-5.698,5.703v5.78H60.756v-5.78c0-3.133-2.566-5.703-5.7-5.703h-1.428c-3.133,0-5.7,2.57-5.7,5.703v5.78
			H20.942v170.973h153.949v-52.784l-11.405,11.403L163.485,172.053L163.485,172.053z"/>
	</g>
</g>
<g id="User_-_Orange">
</g>
<g id="Tools_-_Grey">
</g>
</svg>
