<?xml version="1.0" encoding="utf-8"?>
<!-- Generator: Adobe Illustrator 16.0.0, SVG Export Plug-In . SVG Version: 6.00 Build 0)  -->
<!DOCTYPE svg PUBLIC "-//W3C//DTD SVG 1.1//EN" "http://www.w3.org/Graphics/SVG/1.1/DTD/svg11.dtd">
<svg version="1.1" id="Layer_1" xmlns="http://www.w3.org/2000/svg" xmlns:xlink="http://www.w3.org/1999/xlink" x="0px" y="0px"
	 width="187.721px" height="187.732px" viewBox="0 0 187.721 187.732" enable-background="new 0 0 187.721 187.732"
	 xml:space="preserve">
<symbol  id="Comments_-_Orange_1_" viewBox="-17 -15.828 35.002 30.655">
	<g opacity="0.8">
		<linearGradient id="SVGID_1_" gradientUnits="userSpaceOnUse" x1="1.002" y1="-16.6348" x2="1.002" y2="15.1007">
			<stop  offset="0" style="stop-color:#FFFFFF"/>
			<stop  offset="1" style="stop-color:#FAAE1A"/>
		</linearGradient>
		<path opacity="0.8" fill="url(#SVGID_1_)" d="M1.002,13.826c9.389,0,17-6.141,17-13.717c0-3.023-1.217-5.816-3.268-8.082
			l3.158-7.855L4.506-13.135c-1.4-0.039-2.969-0.377-4.537-0.418c-0.178-0.006-0.355-0.008-0.531-0.008
			c-9.102,0-15.436,6.24-15.436,13.67C-15.998,7.686-8.389,13.826,1.002,13.826 M1.002,10.107c-7.324,0-13.281-4.486-13.281-9.998
			c0-5.672,5.037-9.951,11.717-9.951c0.143,0,0.289,0.002,0.434,0.006C0.5-9.82,1.188-9.734,1.916-9.643
			c0.801,0.1,1.631,0.201,2.486,0.223l0.422,0.014L5.238-9.49l6.633-1.334l-0.588,1.463l-0.867,2.16l1.563,1.725
			c1.051,1.16,2.305,3.074,2.305,5.586C14.283,5.621,8.326,10.107,1.002,10.107L1.002,10.107z"/>
	</g>
	<g>
		<path d="M0,14.827c9.391,0,17-6.141,17-13.717c0-3.023-1.215-5.816-3.268-8.082l3.158-7.855L3.504-12.134
			c-1.4-0.039-2.967-0.377-4.535-0.418c-0.178-0.006-0.357-0.008-0.531-0.008C-10.666-12.56-17-6.319-17,1.11
			C-17,8.687-9.389,14.827,0,14.827 M0,11.108c-7.324,0-13.281-4.486-13.281-9.998c0-5.672,5.039-9.951,11.719-9.951
			c0.143,0,0.287,0.002,0.432,0.006c0.629,0.016,1.316,0.102,2.045,0.193C1.717-8.542,2.545-8.44,3.4-8.419l0.422,0.014l0.414-0.084
			l6.633-1.334L10.283-8.36L9.414-6.2l1.563,1.725c1.051,1.16,2.305,3.074,2.305,5.586C13.281,6.622,7.324,11.108,0,11.108L0,11.108
			z"/>
	</g>
</symbol>
<g id="Comments_-_Orange">
</g>
<g id="To_Do_-_Orange">
</g>
<g id="User_-_Orange">
</g>
<g id="Tools_-_Grey">
	<path fill="#F0E3C0" d="M152.166,122.13h-0.01c-0.561,0-1.105,0.055-1.661,0.085L93.721,65.44c-3.97-3.977-9.75-5.057-14.759-3.342
		l8.87-25.973c1.456-4.274-0.021-10.584-3.213-13.782L66.059,3.782c-3.202-3.197-9.51-4.675-13.779-3.221L41.15,4.363
		c-1.823,0.62-2.976,1.661-3.277,2.944c-0.303,1.273,0.269,2.722,1.637,4.081l11.959,11.917c4.207,4.233,4.197,11.111-0.021,15.334
		L38.638,51.45c-2.038,2.033-4.755,3.154-7.646,3.154c-2.924,0-5.651-1.126-7.699-3.18L11.387,39.512
		c-1.369-1.359-2.813-1.94-4.086-1.64c-1.273,0.302-2.307,1.462-2.935,3.28L0.563,52.279c-1.457,4.292,0.021,10.602,3.213,13.787
		l18.567,18.56c3.192,3.198,9.491,4.67,13.751,3.218l25.998-8.869c-1.715,5.003-0.636,10.783,3.342,14.758l56.77,56.77
		c-0.025,0.556-0.08,1.101-0.08,1.666c0,16.584,13.448,30.038,30.033,30.038c16.584,0,30.043-13.454,30.043-30.038
		C182.199,135.576,168.75,122.13,152.166,122.13z M152.166,167.912c-8.691,0-15.744-7.063-15.744-15.744
		c0-4.205,1.629-8.164,4.615-11.129c2.965-2.976,6.914-4.61,11.129-4.61c8.67,0,15.734,7.059,15.734,15.739
		S160.836,167.912,152.166,167.912z"/>
</g>
</svg>
