<?xml version="1.0" encoding="utf-8"?>
<!-- Generator: Adobe Illustrator 16.0.0, SVG Export Plug-In . SVG Version: 6.00 Build 0)  -->
<!DOCTYPE svg PUBLIC "-//W3C//DTD SVG 1.1//EN" "http://www.w3.org/Graphics/SVG/1.1/DTD/svg11.dtd">
<svg version="1.1" id="Layer_1" xmlns="http://www.w3.org/2000/svg" xmlns:xlink="http://www.w3.org/1999/xlink" x="0px" y="0px"
	 width="29.168px" height="29.167px" viewBox="0 0 29.168 29.167" enable-background="new 0 0 29.168 29.167" xml:space="preserve">
<g>
	<g>
		<path fill="#8BADA3" d="M28.642,24.584h-0.527c-0.004,1.95-1.582,3.526-3.529,3.533H4.583c-1.949-0.007-3.525-1.584-3.529-3.533
			v-20c0.004-1.949,1.581-3.526,3.529-3.529h20.001c1.948,0.003,3.525,1.58,3.529,3.531v19.998H28.642h0.527v-20
			C29.169,2.052,27.118,0,24.586,0H4.583C2.051,0,0,2.052,0,4.584v19.998c0,2.532,2.052,4.585,4.583,4.585h20.001
			c2.532,0,4.583-2.053,4.583-4.585h-0.524V24.584z"/>
	</g>
	<g>
		<path fill="#8BADA3" d="M23.728,8.47c0,0.83-0.676,1.504-1.506,1.504H6.945c-0.828,0-1.503-0.674-1.503-1.504l0,0
			c0-0.833,0.675-1.504,1.503-1.504h15.277C23.052,6.966,23.728,7.638,23.728,8.47L23.728,8.47z"/>
		<path fill="#8BADA3" d="M23.728,14.585c0,0.829-0.676,1.503-1.506,1.503H6.945c-0.828,0-1.503-0.674-1.503-1.503l0,0
			c0-0.832,0.675-1.504,1.503-1.504h15.277C23.052,13.082,23.728,13.754,23.728,14.585L23.728,14.585z"/>
		<path fill="#8BADA3" d="M23.728,20.703c0,0.83-0.676,1.503-1.506,1.503H6.945c-0.828,0-1.503-0.673-1.503-1.503l0,0
			c0-0.832,0.675-1.504,1.503-1.504h15.277C23.052,19.199,23.728,19.871,23.728,20.703L23.728,20.703z"/>
	</g>
</g>
</svg>
